<svg width="200" height="200" viewBox="0 0 200 200" fill="none" xmlns="http://www.w3.org/2000/svg">
<circle cx="100" cy="100" r="100" fill="#EBF1FF"/>
<g clip-path="url(#clip0)">
<path fill-rule="evenodd" clip-rule="evenodd" d="M63.0078 67.9785V74.7273V106.92C63.0078 108.732 64.4889 110.212 66.2958 110.212H118.523L131.815 120.254L138.462 125.272V110.212H143.789C145.596 110.212 147.083 108.731 147.083 106.919V67.9785C147.083 66.1665 145.602 64.6855 143.789 64.6855H66.2956C64.4889 64.6855 63.0078 66.1666 63.0078 67.9785Z" fill="#DFEDFF"/>
<path fill-rule="evenodd" clip-rule="evenodd" d="M52.9141 78.015V116.962C52.9141 118.774 54.3952 120.255 56.2074 120.255H61.5354V135.315L81.469 120.255H131.818L118.526 110.213H66.2989C64.4922 110.213 63.0109 108.732 63.0109 106.92V74.7274H56.2074C54.3952 74.7274 52.9141 76.2085 52.9141 78.015Z" fill="#F68527"/>
<path d="M143.793 62.7715H66.2991C63.4307 62.7715 61.0971 65.1074 61.0971 67.9785V72.8132H56.2074C53.3359 72.8132 51 75.1467 51 78.0151V116.962C51 119.833 53.3359 122.169 56.2074 122.169H59.6213V135.314C59.6213 136.041 60.0323 136.704 60.6825 137.028C60.9526 137.162 61.2446 137.229 61.5352 137.229C61.9442 137.229 62.3506 137.097 62.6892 136.842L82.1106 122.169H131.179L137.311 126.8C137.65 127.056 138.056 127.187 138.465 127.187C138.756 127.187 139.048 127.121 139.318 126.986C139.968 126.663 140.379 125.999 140.379 125.273V112.127H143.793C146.664 112.127 149 109.791 149 106.92V67.9785C149 65.1074 146.664 62.7715 143.793 62.7715ZM145.172 106.92C145.172 107.667 144.54 108.299 143.793 108.299H138.465C137.408 108.299 136.551 109.156 136.551 110.213V121.428L119.679 108.685C119.347 108.434 118.942 108.299 118.526 108.299H96.704C95.647 108.299 94.7899 109.156 94.7899 110.213C94.7899 111.27 95.647 112.127 96.704 112.127H117.884L126.11 118.34H81.4688C81.0523 118.34 80.6473 118.476 80.315 118.727L63.4494 131.469V120.254C63.4494 119.197 62.5923 118.34 61.5354 118.34H56.2074C55.4467 118.34 54.8281 117.722 54.8281 116.961V78.0151C54.8281 77.2703 55.4598 76.6414 56.2074 76.6414H61.0971V106.92C61.0971 109.791 63.4305 112.127 66.2991 112.127H79.5159C80.5728 112.127 81.43 111.27 81.43 110.213C81.43 109.156 80.5728 108.299 79.5159 108.299H66.2991C65.5543 108.299 64.9252 107.667 64.9252 106.92V67.9785C64.9252 67.2311 65.5543 66.5996 66.2991 66.5996H143.793C144.553 66.5996 145.172 67.218 145.172 67.9785V106.92Z" fill="black"/>
<path d="M107.973 89.636C107.955 89.5881 107.936 89.5412 107.914 89.4951L102 75.4698C101.987 75.4384 101.974 75.411 101.961 75.3869C101.766 74.98 101.429 74.6391 100.981 74.4498C100.007 74.039 98.8841 74.4952 98.4729 75.4694L92.5319 89.5514C92.5286 89.5592 92.5254 89.5669 92.5219 89.5747L89.233 97.3703C88.8222 98.3442 89.2785 99.4668 90.2526 99.8779C90.4955 99.9803 90.7476 100.029 90.9958 100.029C91.7421 100.029 92.4517 99.5893 92.7602 98.8583L95.5601 92.2219H104.909L107.707 98.8579C108.015 99.5893 108.725 100.029 109.472 100.029C109.72 100.029 109.971 99.9803 110.214 99.8781C111.189 99.4674 111.645 98.3448 111.235 97.3707L107.973 89.636ZM97.1754 88.3937L100.236 81.1389L103.295 88.3937H97.1754Z" fill="#2950A3"/>
<path d="M134.362 93.681C135.861 91.4923 136.755 88.7567 136.755 85.7901C136.755 78.6346 131.56 72.8134 125.175 72.8134C118.787 72.8134 113.59 78.6346 113.59 85.7901C113.59 92.9489 118.787 98.773 125.175 98.773C127.612 98.773 129.875 97.9224 131.743 96.4748L135.338 100.043C135.711 100.414 136.199 100.598 136.686 100.598C137.178 100.598 137.671 100.41 138.045 100.033C138.79 99.2823 138.785 98.0705 138.035 97.3258L134.362 93.681ZM131.588 90.9277L128.259 87.6242C127.509 86.8796 126.297 86.884 125.552 87.6345C124.807 88.3848 124.812 89.5966 125.562 90.3414L128.997 93.7501C127.868 94.5091 126.564 94.9451 125.175 94.9451C120.898 94.9451 117.418 90.8383 117.418 85.7903C117.418 80.7458 120.898 76.6417 125.175 76.6417C129.449 76.6417 132.927 80.7456 132.927 85.7903C132.927 87.6929 132.432 89.4619 131.588 90.9277Z" fill="#2950A3"/>
<path d="M88.294 86.2437C88.294 85.1868 87.4368 84.3297 86.3799 84.3297H76.0156V78.127H86.3797C87.4366 78.127 88.2938 77.2698 88.2938 76.2129C88.2938 75.1559 87.4366 74.2988 86.3797 74.2988H74.1016C73.0446 74.2988 72.1875 75.1559 72.1875 76.2129V98.6834C72.1875 99.7404 73.0446 100.597 74.1016 100.597C75.1585 100.597 76.0156 99.7404 76.0156 98.6834V88.1578H86.3797C87.4368 88.1578 88.294 87.3007 88.294 86.2437Z" fill="#2950A3"/>
<path d="M88.1094 108.299C87.0524 108.299 86.1953 109.156 86.1953 110.213C86.1953 111.27 87.0524 112.127 88.1094 112.127H88.1147C89.1717 112.127 90.0259 111.27 90.0259 110.213C90.0259 109.156 89.1663 108.299 88.1094 108.299Z" fill="black"/>
</g>
<defs>
<clipPath id="clip0">
<rect width="98" height="98" fill="white" transform="translate(51 51)"/>
</clipPath>
</defs>
</svg>
